<?xml version="1.0" encoding="UTF-8" standalone="no"?>
<!DOCTYPE svg PUBLIC "-//W3C//DTD SVG 1.1//EN"
 "http://www.w3.org/Graphics/SVG/1.1/DTD/svg11.dtd">
<!-- Generated by graphviz version 2.40.1 (20161225.0304)
 -->
<!-- Title: dependencies Pages: 1 -->
<svg width="650pt" height="284pt"
 viewBox="0.00 0.00 650.00 284.00" xmlns="http://www.w3.org/2000/svg" xmlns:xlink="http://www.w3.org/1999/xlink">
<g id="graph0" class="graph" transform="scale(1 1) rotate(0) translate(4 280)">
<title>dependencies</title>
<polygon fill="#ffffff" stroke="transparent" points="-4,4 -4,-280 646,-280 646,4 -4,4"/>
<text text-anchor="start" x="300.0091" y="-42.4" font-family="sans-serif" font-weight="bold" font-size="14.00" fill="#000000">Legend</text>
<polygon fill="#ffffb3" stroke="transparent" points="87,-10 87,-30 107,-30 107,-10 87,-10"/>
<text text-anchor="start" x="110.629" y="-15.4" font-family="sans-serif" font-size="14.00" fill="#000000"> &#160;Declarations</text>
<polygon fill="#8dd3c7" stroke="transparent" points="200,-10 200,-30 220,-30 220,-10 200,-10"/>
<text text-anchor="start" x="223.7251" y="-15.4" font-family="sans-serif" font-size="14.00" fill="#000000"> &#160;Module</text>
<polygon fill="#80b1d3" stroke="transparent" points="286,-10 286,-30 306,-30 306,-10 286,-10"/>
<text text-anchor="start" x="309.7812" y="-15.4" font-family="sans-serif" font-size="14.00" fill="#000000"> &#160;Bootstrap</text>
<polygon fill="#fdb462" stroke="transparent" points="383,-10 383,-30 403,-30 403,-10 383,-10"/>
<text text-anchor="start" x="406.6732" y="-15.4" font-family="sans-serif" font-size="14.00" fill="#000000"> &#160;Providers</text>
<polygon fill="#fb8072" stroke="transparent" points="479,-10 479,-30 499,-30 499,-10 479,-10"/>
<text text-anchor="start" x="502.7258" y="-15.4" font-family="sans-serif" font-size="14.00" fill="#000000"> &#160;Exports</text>
<g id="clust1" class="cluster">
<title>cluster_SharedModule</title>
<polygon fill="none" stroke="#000000" stroke-dasharray="1,5" points="8,-70 8,-268 634,-268 634,-70 8,-70"/>
</g>
<g id="clust2" class="cluster">
<title>cluster_SharedModule_declarations</title>
<polygon fill="none" stroke="#000000" points="22,-78 22,-130 620,-130 620,-78 22,-78"/>
</g>
<g id="clust7" class="cluster">
<title>cluster_SharedModule_exports</title>
<polygon fill="none" stroke="#000000" points="16,-208 16,-260 626,-260 626,-208 16,-208"/>
</g>
<!-- FormCheckboxGroupComponent -->
<g id="node1" class="node">
<title>FormCheckboxGroupComponent</title>
<polygon fill="#ffffb3" stroke="#000000" points="612.1993,-122 407.8007,-122 407.8007,-86 612.1993,-86 612.1993,-122"/>
<text text-anchor="middle" x="510" y="-99.8" font-family="Times,serif" font-size="14.00" fill="#000000">FormCheckboxGroupComponent</text>
</g>
<!-- SharedModule -->
<g id="node4" class="node">
<title>SharedModule</title>
<polygon fill="#8dd3c7" stroke="#000000" points="353.4231,-187 350.4231,-191 329.4231,-191 326.4231,-187 254.5769,-187 254.5769,-151 353.4231,-151 353.4231,-187"/>
<text text-anchor="middle" x="304" y="-164.8" font-family="Times,serif" font-size="14.00" fill="#000000">SharedModule</text>
</g>
<!-- FormCheckboxGroupComponent&#45;&gt;SharedModule -->
<g id="edge1" class="edge">
<title>FormCheckboxGroupComponent&#45;&gt;SharedModule</title>
<path fill="none" stroke="#000000" d="M544.7832,-122.0225C544.7832,-139.3734 544.7832,-163 544.7832,-163 544.7832,-163 363.3071,-163 363.3071,-163"/>
<polygon fill="#000000" stroke="#000000" points="363.3071,-159.5001 353.3071,-163 363.3071,-166.5001 363.3071,-159.5001"/>
</g>
<!-- FormMultiInputComponent -->
<g id="node2" class="node">
<title>FormMultiInputComponent</title>
<polygon fill="#ffffb3" stroke="#000000" points="390.3341,-122 217.6659,-122 217.6659,-86 390.3341,-86 390.3341,-122"/>
<text text-anchor="middle" x="304" y="-99.8" font-family="Times,serif" font-size="14.00" fill="#000000">FormMultiInputComponent</text>
</g>
<!-- FormMultiInputComponent&#45;&gt;SharedModule -->
<g id="edge2" class="edge">
<title>FormMultiInputComponent&#45;&gt;SharedModule</title>
<path fill="none" stroke="#000000" d="M304,-122.1061C304,-122.1061 304,-140.991 304,-140.991"/>
<polygon fill="#000000" stroke="#000000" points="300.5001,-140.9909 304,-150.991 307.5001,-140.991 300.5001,-140.9909"/>
</g>
<!-- PageJumpPanelComponent -->
<g id="node3" class="node">
<title>PageJumpPanelComponent</title>
<polygon fill="#ffffb3" stroke="#000000" points="199.9818,-122 30.0182,-122 30.0182,-86 199.9818,-86 199.9818,-122"/>
<text text-anchor="middle" x="115" y="-99.8" font-family="Times,serif" font-size="14.00" fill="#000000">PageJumpPanelComponent</text>
</g>
<!-- PageJumpPanelComponent&#45;&gt;SharedModule -->
<g id="edge3" class="edge">
<title>PageJumpPanelComponent&#45;&gt;SharedModule</title>
<path fill="none" stroke="#000000" d="M141.8303,-122.0225C141.8303,-139.3734 141.8303,-163 141.8303,-163 141.8303,-163 244.4626,-163 244.4626,-163"/>
<polygon fill="#000000" stroke="#000000" points="244.4626,-166.5001 254.4626,-163 244.4625,-159.5001 244.4626,-166.5001"/>
</g>
<!-- FormCheckboxGroupComponent  -->
<g id="node5" class="node">
<title>FormCheckboxGroupComponent </title>
<polygon fill="#fb8072" stroke="#000000" points="617.6994,-252 410.3006,-252 410.3006,-216 617.6994,-216 617.6994,-252"/>
<text text-anchor="middle" x="514" y="-229.8" font-family="Times,serif" font-size="14.00" fill="#000000">FormCheckboxGroupComponent </text>
</g>
<!-- SharedModule&#45;&gt;FormCheckboxGroupComponent  -->
<g id="edge4" class="edge">
<title>SharedModule&#45;&gt;FormCheckboxGroupComponent </title>
<path fill="none" stroke="#000000" stroke-dasharray="5,2" d="M353.2446,-175C404.529,-175 477.4668,-175 477.4668,-175 477.4668,-175 477.4668,-205.9775 477.4668,-205.9775"/>
<polygon fill="#000000" stroke="#000000" points="473.9669,-205.9774 477.4668,-215.9775 480.9669,-205.9775 473.9669,-205.9774"/>
</g>
<!-- FormMultiInputComponent  -->
<g id="node6" class="node">
<title>FormMultiInputComponent </title>
<polygon fill="#fb8072" stroke="#000000" points="391.8339,-252 216.1661,-252 216.1661,-216 391.8339,-216 391.8339,-252"/>
<text text-anchor="middle" x="304" y="-229.8" font-family="Times,serif" font-size="14.00" fill="#000000">FormMultiInputComponent </text>
</g>
<!-- SharedModule&#45;&gt;FormMultiInputComponent  -->
<g id="edge5" class="edge">
<title>SharedModule&#45;&gt;FormMultiInputComponent </title>
<path fill="none" stroke="#000000" stroke-dasharray="5,2" d="M304,-187.1061C304,-187.1061 304,-205.991 304,-205.991"/>
<polygon fill="#000000" stroke="#000000" points="300.5001,-205.9909 304,-215.991 307.5001,-205.991 300.5001,-205.9909"/>
</g>
<!-- PageJumpPanelComponent  -->
<g id="node7" class="node">
<title>PageJumpPanelComponent </title>
<polygon fill="#fb8072" stroke="#000000" points="197.9825,-252 24.0175,-252 24.0175,-216 197.9825,-216 197.9825,-252"/>
<text text-anchor="middle" x="111" y="-229.8" font-family="Times,serif" font-size="14.00" fill="#000000">PageJumpPanelComponent </text>
</g>
<!-- SharedModule&#45;&gt;PageJumpPanelComponent  -->
<g id="edge6" class="edge">
<title>SharedModule&#45;&gt;PageJumpPanelComponent </title>
<path fill="none" stroke="#000000" stroke-dasharray="5,2" d="M254.7866,-175C190.4661,-175 85.9197,-175 85.9197,-175 85.9197,-175 85.9197,-205.9775 85.9197,-205.9775"/>
<polygon fill="#000000" stroke="#000000" points="82.4198,-205.9774 85.9197,-215.9775 89.4198,-205.9775 82.4198,-205.9774"/>
</g>
</g>
</svg>
