<?xml version="1.0" encoding="UTF-8" standalone="no"?>
<!DOCTYPE svg PUBLIC "-//W3C//DTD SVG 1.1//EN"
 "http://www.w3.org/Graphics/SVG/1.1/DTD/svg11.dtd">
<!-- Generated by graphviz version 2.40.1 (20161225.0304)
 -->
<!-- Title: dependencies Pages: 1 -->
<svg width="673pt" height="211pt"
 viewBox="0.00 0.00 673.00 211.00" xmlns="http://www.w3.org/2000/svg" xmlns:xlink="http://www.w3.org/1999/xlink">
<g id="graph0" class="graph" transform="scale(1 1) rotate(0) translate(4 207)">
<title>dependencies</title>
<polygon fill="#ffffff" stroke="transparent" points="-4,4 -4,-207 669,-207 669,4 -4,4"/>
<text text-anchor="start" x="311.5091" y="-42.4" font-family="sans-serif" font-weight="bold" font-size="14.00" fill="#000000">Legend</text>
<polygon fill="#ffffb3" stroke="transparent" points="98.5,-10 98.5,-30 118.5,-30 118.5,-10 98.5,-10"/>
<text text-anchor="start" x="122.129" y="-15.4" font-family="sans-serif" font-size="14.00" fill="#000000"> &#160;Declarations</text>
<polygon fill="#8dd3c7" stroke="transparent" points="211.5,-10 211.5,-30 231.5,-30 231.5,-10 211.5,-10"/>
<text text-anchor="start" x="235.2251" y="-15.4" font-family="sans-serif" font-size="14.00" fill="#000000"> &#160;Module</text>
<polygon fill="#80b1d3" stroke="transparent" points="297.5,-10 297.5,-30 317.5,-30 317.5,-10 297.5,-10"/>
<text text-anchor="start" x="321.2812" y="-15.4" font-family="sans-serif" font-size="14.00" fill="#000000"> &#160;Bootstrap</text>
<polygon fill="#fdb462" stroke="transparent" points="394.5,-10 394.5,-30 414.5,-30 414.5,-10 394.5,-10"/>
<text text-anchor="start" x="418.1732" y="-15.4" font-family="sans-serif" font-size="14.00" fill="#000000"> &#160;Providers</text>
<polygon fill="#fb8072" stroke="transparent" points="490.5,-10 490.5,-30 510.5,-30 510.5,-10 490.5,-10"/>
<text text-anchor="start" x="514.2258" y="-15.4" font-family="sans-serif" font-size="14.00" fill="#000000"> &#160;Exports</text>
<g id="clust1" class="cluster">
<title>cluster_CompModule</title>
<polygon fill="none" stroke="#000000" stroke-dasharray="1,5" points="8,-70 8,-195 657,-195 657,-70 8,-70"/>
</g>
<g id="clust2" class="cluster">
<title>cluster_CompModule_declarations</title>
<polygon fill="none" stroke="#000000" points="295,-78 295,-130 649,-130 649,-78 295,-78"/>
</g>
<g id="clust5" class="cluster">
<title>cluster_CompModule_imports</title>
<polygon fill="none" stroke="#000000" points="16,-78 16,-130 287,-130 287,-78 16,-78"/>
</g>
<!-- CompComponent -->
<g id="node1" class="node">
<title>CompComponent</title>
<polygon fill="#ffffb3" stroke="#000000" points="640.5604,-122 525.4396,-122 525.4396,-86 640.5604,-86 640.5604,-122"/>
<text text-anchor="middle" x="583" y="-99.8" font-family="Times,serif" font-size="14.00" fill="#000000">CompComponent</text>
</g>
<!-- CompModule -->
<g id="node3" class="node">
<title>CompModule</title>
<polygon fill="#8dd3c7" stroke="#000000" points="353.7773,-187 350.7773,-191 329.7773,-191 326.7773,-187 260.2227,-187 260.2227,-151 353.7773,-151 353.7773,-187"/>
<text text-anchor="middle" x="307" y="-164.8" font-family="Times,serif" font-size="14.00" fill="#000000">CompModule</text>
</g>
<!-- CompComponent&#45;&gt;CompModule -->
<g id="edge1" class="edge">
<title>CompComponent&#45;&gt;CompModule</title>
<path fill="none" stroke="#000000" d="M583,-122.1061C583,-141.3391 583,-169 583,-169 583,-169 363.8196,-169 363.8196,-169"/>
<polygon fill="#000000" stroke="#000000" points="363.8197,-165.5001 353.8196,-169 363.8196,-172.5001 363.8197,-165.5001"/>
</g>
<!-- PageJumpPanelDemoComponent -->
<g id="node2" class="node">
<title>PageJumpPanelDemoComponent</title>
<polygon fill="#ffffb3" stroke="#000000" points="507.1937,-122 302.8063,-122 302.8063,-86 507.1937,-86 507.1937,-122"/>
<text text-anchor="middle" x="405" y="-99.8" font-family="Times,serif" font-size="14.00" fill="#000000">PageJumpPanelDemoComponent</text>
</g>
<!-- PageJumpPanelDemoComponent&#45;&gt;CompModule -->
<g id="edge2" class="edge">
<title>PageJumpPanelDemoComponent&#45;&gt;CompModule</title>
<path fill="none" stroke="#000000" d="M328.3959,-122.1061C328.3959,-122.1061 328.3959,-140.991 328.3959,-140.991"/>
<polygon fill="#000000" stroke="#000000" points="324.8959,-140.9909 328.3959,-150.991 331.8959,-140.991 324.8959,-140.9909"/>
</g>
<!-- CompRoutingModule -->
<g id="node4" class="node">
<title>CompRoutingModule</title>
<polygon fill="#8dd3c7" stroke="#000000" points="279.3948,-122 276.3948,-126 255.3948,-126 252.3948,-122 140.6052,-122 140.6052,-86 279.3948,-86 279.3948,-122"/>
<text text-anchor="middle" x="210" y="-99.8" font-family="Times,serif" font-size="14.00" fill="#000000">CompRoutingModule</text>
</g>
<!-- CompRoutingModule&#45;&gt;CompModule -->
<g id="edge3" class="edge">
<title>CompRoutingModule&#45;&gt;CompModule</title>
<path fill="none" stroke="#000000" d="M269.7795,-122.1061C269.7795,-122.1061 269.7795,-140.991 269.7795,-140.991"/>
<polygon fill="#000000" stroke="#000000" points="266.2795,-140.9909 269.7795,-150.991 273.2795,-140.991 266.2795,-140.9909"/>
</g>
<!-- SharedModule -->
<g id="node5" class="node">
<title>SharedModule</title>
<polygon fill="#8dd3c7" stroke="#000000" points="122.4231,-122 119.4231,-126 98.4231,-126 95.4231,-122 23.5769,-122 23.5769,-86 122.4231,-86 122.4231,-122"/>
<text text-anchor="middle" x="73" y="-99.8" font-family="Times,serif" font-size="14.00" fill="#000000">SharedModule</text>
</g>
<!-- SharedModule&#45;&gt;CompModule -->
<g id="edge4" class="edge">
<title>SharedModule&#45;&gt;CompModule</title>
<path fill="none" stroke="#000000" d="M73,-122.1061C73,-141.3391 73,-169 73,-169 73,-169 250.209,-169 250.209,-169"/>
<polygon fill="#000000" stroke="#000000" points="250.209,-172.5001 260.209,-169 250.209,-165.5001 250.209,-172.5001"/>
</g>
</g>
</svg>
