<?xml version="1.0" encoding="UTF-8" standalone="no"?>
<!DOCTYPE svg PUBLIC "-//W3C//DTD SVG 1.1//EN"
 "http://www.w3.org/Graphics/SVG/1.1/DTD/svg11.dtd">
<!-- Generated by graphviz version 2.40.1 (20161225.0304)
 -->
<!-- Title: dependencies Pages: 1 -->
<svg width="2523pt" height="290pt"
 viewBox="0.00 0.00 2523.00 290.00" xmlns="http://www.w3.org/2000/svg" xmlns:xlink="http://www.w3.org/1999/xlink">
<g id="graph0" class="graph" transform="scale(1 1) rotate(0) translate(4 286)">
<title>dependencies</title>
<polygon fill="#ffffff" stroke="transparent" points="-4,4 -4,-286 2519,-286 2519,4 -4,4"/>
<text text-anchor="start" x="1236.5091" y="-42.4" font-family="sans-serif" font-weight="bold" font-size="14.00" fill="#000000">Legend</text>
<polygon fill="#ffffb3" stroke="transparent" points="1023.5,-10 1023.5,-30 1043.5,-30 1043.5,-10 1023.5,-10"/>
<text text-anchor="start" x="1047.129" y="-15.4" font-family="sans-serif" font-size="14.00" fill="#000000"> &#160;Declarations</text>
<polygon fill="#8dd3c7" stroke="transparent" points="1136.5,-10 1136.5,-30 1156.5,-30 1156.5,-10 1136.5,-10"/>
<text text-anchor="start" x="1160.2251" y="-15.4" font-family="sans-serif" font-size="14.00" fill="#000000"> &#160;Module</text>
<polygon fill="#80b1d3" stroke="transparent" points="1222.5,-10 1222.5,-30 1242.5,-30 1242.5,-10 1222.5,-10"/>
<text text-anchor="start" x="1246.2812" y="-15.4" font-family="sans-serif" font-size="14.00" fill="#000000"> &#160;Bootstrap</text>
<polygon fill="#fdb462" stroke="transparent" points="1319.5,-10 1319.5,-30 1339.5,-30 1339.5,-10 1319.5,-10"/>
<text text-anchor="start" x="1343.1732" y="-15.4" font-family="sans-serif" font-size="14.00" fill="#000000"> &#160;Providers</text>
<polygon fill="#fb8072" stroke="transparent" points="1415.5,-10 1415.5,-30 1435.5,-30 1435.5,-10 1415.5,-10"/>
<text text-anchor="start" x="1439.2258" y="-15.4" font-family="sans-serif" font-size="14.00" fill="#000000"> &#160;Exports</text>
<g id="clust1" class="cluster">
<title>cluster_AppModule</title>
<polygon fill="none" stroke="#000000" stroke-dasharray="1,5" points="8,-70 8,-274 415,-274 415,-70 8,-70"/>
</g>
<g id="clust2" class="cluster">
<title>cluster_AppModule_declarations</title>
<polygon fill="none" stroke="#000000" points="16,-78 16,-130 138,-130 138,-78 16,-78"/>
</g>
<g id="clust4" class="cluster">
<title>cluster_AppModule_imports</title>
<polygon fill="none" stroke="#000000" points="146,-78 146,-130 407,-130 407,-78 146,-78"/>
</g>
<g id="clust6" class="cluster">
<title>cluster_AppModule_bootstrap</title>
<polygon fill="none" stroke="#000000" points="156,-214 156,-266 280,-266 280,-214 156,-214"/>
</g>
<g id="clust14" class="cluster">
<title>cluster_CompModule</title>
<polygon fill="none" stroke="#000000" stroke-dasharray="1,5" points="1663,-70 1663,-198 2195,-198 2195,-70 1663,-70"/>
</g>
<g id="clust15" class="cluster">
<title>cluster_CompModule_declarations</title>
<polygon fill="none" stroke="#000000" points="1833,-78 1833,-130 2187,-130 2187,-78 1833,-78"/>
</g>
<g id="clust18" class="cluster">
<title>cluster_CompModule_imports</title>
<polygon fill="none" stroke="#000000" points="1671,-78 1671,-130 1825,-130 1825,-78 1671,-78"/>
</g>
<g id="clust28" class="cluster">
<title>cluster_FormModule</title>
<polygon fill="none" stroke="#000000" stroke-dasharray="1,5" points="2203,-70 2203,-198 2507,-198 2507,-70 2203,-70"/>
</g>
<g id="clust29" class="cluster">
<title>cluster_FormModule_declarations</title>
<polygon fill="none" stroke="#000000" points="2371,-78 2371,-130 2499,-130 2499,-78 2371,-78"/>
</g>
<g id="clust31" class="cluster">
<title>cluster_FormModule_imports</title>
<polygon fill="none" stroke="#000000" points="2211,-78 2211,-130 2363,-130 2363,-78 2211,-78"/>
</g>
<g id="clust41" class="cluster">
<title>cluster_SharedModule</title>
<polygon fill="none" stroke="#000000" stroke-dasharray="1,5" points="423,-138 423,-206 1655,-206 1655,-138 423,-138"/>
</g>
<g id="clust42" class="cluster">
<title>cluster_SharedModule_declarations</title>
<polygon fill="none" stroke="#000000" points="1049,-146 1049,-198 1647,-198 1647,-146 1049,-146"/>
</g>
<g id="clust47" class="cluster">
<title>cluster_SharedModule_exports</title>
<polygon fill="none" stroke="#000000" points="431,-146 431,-198 1041,-198 1041,-146 431,-146"/>
</g>
<!-- AppComponent -->
<g id="node1" class="node">
<title>AppComponent</title>
<polygon fill="#ffffb3" stroke="#000000" points="129.9399,-122 24.0601,-122 24.0601,-86 129.9399,-86 129.9399,-122"/>
<text text-anchor="middle" x="77" y="-99.8" font-family="Times,serif" font-size="14.00" fill="#000000">AppComponent</text>
</g>
<!-- AppModule -->
<g id="node2" class="node">
<title>AppModule</title>
<polygon fill="#8dd3c7" stroke="#000000" points="259.6571,-190 256.6571,-194 235.6571,-194 232.6571,-190 176.3429,-190 176.3429,-154 259.6571,-154 259.6571,-190"/>
<text text-anchor="middle" x="218" y="-167.8" font-family="Times,serif" font-size="14.00" fill="#000000">AppModule</text>
</g>
<!-- AppComponent&#45;&gt;AppModule -->
<g id="edge1" class="edge">
<title>AppComponent&#45;&gt;AppModule</title>
<path fill="none" stroke="#000000" d="M77,-122.2228C77,-142.3652 77,-172 77,-172 77,-172 166.0771,-172 166.0771,-172"/>
<polygon fill="#000000" stroke="#000000" points="166.0771,-175.5001 176.0771,-172 166.0771,-168.5001 166.0771,-175.5001"/>
</g>
<!-- AppComponent  -->
<g id="node5" class="node">
<title>AppComponent </title>
<polygon fill="#80b1d3" stroke="#000000" points="272.439,-258 163.561,-258 163.561,-222 272.439,-222 272.439,-258"/>
<text text-anchor="middle" x="218" y="-235.8" font-family="Times,serif" font-size="14.00" fill="#000000">AppComponent </text>
</g>
<!-- AppModule&#45;&gt;AppComponent  -->
<g id="edge4" class="edge">
<title>AppModule&#45;&gt;AppComponent </title>
<path fill="none" stroke="#000000" stroke-dasharray="1,5" d="M218,-190.2228C218,-190.2228 218,-211.7269 218,-211.7269"/>
<polygon fill="#000000" stroke="#000000" points="214.5001,-211.7269 218,-221.7269 221.5001,-211.727 214.5001,-211.7269"/>
</g>
<!-- AppRoutingModule -->
<g id="node3" class="node">
<title>AppRoutingModule</title>
<polygon fill="#8dd3c7" stroke="#000000" points="282.2744,-122 279.2744,-126 258.2744,-126 255.2744,-122 153.7256,-122 153.7256,-86 282.2744,-86 282.2744,-122"/>
<text text-anchor="middle" x="218" y="-99.8" font-family="Times,serif" font-size="14.00" fill="#000000">AppRoutingModule</text>
</g>
<!-- AppRoutingModule&#45;&gt;AppModule -->
<g id="edge2" class="edge">
<title>AppRoutingModule&#45;&gt;AppModule</title>
<path fill="none" stroke="#000000" d="M218,-122.2228C218,-122.2228 218,-143.7269 218,-143.7269"/>
<polygon fill="#000000" stroke="#000000" points="214.5001,-143.7269 218,-153.7269 221.5001,-143.727 214.5001,-143.7269"/>
</g>
<!-- SharedModule -->
<g id="node4" class="node">
<title>SharedModule</title>
<polygon fill="#8dd3c7" stroke="#000000" points="399.4231,-122 396.4231,-126 375.4231,-126 372.4231,-122 300.5769,-122 300.5769,-86 399.4231,-86 399.4231,-122"/>
<text text-anchor="middle" x="350" y="-99.8" font-family="Times,serif" font-size="14.00" fill="#000000">SharedModule</text>
</g>
<!-- SharedModule&#45;&gt;AppModule -->
<g id="edge3" class="edge">
<title>SharedModule&#45;&gt;AppModule</title>
<path fill="none" stroke="#000000" d="M350,-122.2921C350,-144.2057 350,-178 350,-178 350,-178 269.7656,-178 269.7656,-178"/>
<polygon fill="#000000" stroke="#000000" points="269.7657,-174.5001 259.7656,-178 269.7656,-181.5001 269.7657,-174.5001"/>
</g>
<!-- CompModule -->
<g id="node8" class="node">
<title>CompModule</title>
<polygon fill="#8dd3c7" stroke="#000000" points="1891.7773,-190 1888.7773,-194 1867.7773,-194 1864.7773,-190 1798.2227,-190 1798.2227,-154 1891.7773,-154 1891.7773,-190"/>
<text text-anchor="middle" x="1845" y="-167.8" font-family="Times,serif" font-size="14.00" fill="#000000">CompModule</text>
</g>
<!-- SharedModule&#45;&gt;CompModule -->
<g id="edge8" class="edge">
<title>SharedModule&#45;&gt;CompModule</title>
<path fill="none" stroke="#000000" d="M399.3133,-92C637.6534,-92 1658.8261,-92 1658.8261,-92 1658.8261,-92 1658.8261,-172 1658.8261,-172 1658.8261,-172 1788.0205,-172 1788.0205,-172"/>
<polygon fill="#000000" stroke="#000000" points="1788.0205,-175.5001 1798.0205,-172 1788.0204,-168.5001 1788.0205,-175.5001"/>
</g>
<!-- FormModule -->
<g id="node11" class="node">
<title>FormModule</title>
<polygon fill="#8dd3c7" stroke="#000000" points="2331.8837,-190 2328.8837,-194 2307.8837,-194 2304.8837,-190 2242.1163,-190 2242.1163,-154 2331.8837,-154 2331.8837,-190"/>
<text text-anchor="middle" x="2287" y="-167.8" font-family="Times,serif" font-size="14.00" fill="#000000">FormModule</text>
</g>
<!-- SharedModule&#45;&gt;FormModule -->
<g id="edge11" class="edge">
<title>SharedModule&#45;&gt;FormModule</title>
<path fill="none" stroke="#000000" d="M325.3945,-122.1944C325.3945,-130.2782 325.3945,-138 325.3945,-138 325.3945,-138 2272.0194,-138 2272.0194,-138 2272.0194,-138 2272.0194,-143.8056 2272.0194,-143.8056"/>
<polygon fill="#000000" stroke="#000000" points="2268.5195,-143.8055 2272.0194,-153.8056 2275.5195,-143.8056 2268.5195,-143.8055"/>
</g>
<!-- FormCheckboxGroupComponent  -->
<g id="node16" class="node">
<title>FormCheckboxGroupComponent </title>
<polygon fill="#fb8072" stroke="#000000" points="1032.6994,-190 825.3006,-190 825.3006,-154 1032.6994,-154 1032.6994,-190"/>
<text text-anchor="middle" x="929" y="-167.8" font-family="Times,serif" font-size="14.00" fill="#000000">FormCheckboxGroupComponent </text>
</g>
<!-- SharedModule&#45;&gt;FormCheckboxGroupComponent  -->
<g id="edge15" class="edge">
<title>SharedModule&#45;&gt;FormCheckboxGroupComponent </title>
<path fill="none" stroke="#000000" stroke-dasharray="5,2" d="M399.3652,-112C539.3836,-112 929,-112 929,-112 929,-112 929,-143.998 929,-143.998"/>
<polygon fill="#000000" stroke="#000000" points="925.5001,-143.998 929,-153.998 932.5001,-143.9981 925.5001,-143.998"/>
</g>
<!-- FormMultiInputComponent  -->
<g id="node17" class="node">
<title>FormMultiInputComponent </title>
<polygon fill="#fb8072" stroke="#000000" points="806.8339,-190 631.1661,-190 631.1661,-154 806.8339,-154 806.8339,-190"/>
<text text-anchor="middle" x="719" y="-167.8" font-family="Times,serif" font-size="14.00" fill="#000000">FormMultiInputComponent </text>
</g>
<!-- SharedModule&#45;&gt;FormMultiInputComponent  -->
<g id="edge16" class="edge">
<title>SharedModule&#45;&gt;FormMultiInputComponent </title>
<path fill="none" stroke="#000000" stroke-dasharray="5,2" d="M399.3821,-117C499.9312,-117 719,-117 719,-117 719,-117 719,-143.9909 719,-143.9909"/>
<polygon fill="#000000" stroke="#000000" points="715.5001,-143.9909 719,-153.9909 722.5001,-143.991 715.5001,-143.9909"/>
</g>
<!-- PageJumpPanelComponent  -->
<g id="node18" class="node">
<title>PageJumpPanelComponent </title>
<polygon fill="#fb8072" stroke="#000000" points="612.9825,-190 439.0175,-190 439.0175,-154 612.9825,-154 612.9825,-190"/>
<text text-anchor="middle" x="526" y="-167.8" font-family="Times,serif" font-size="14.00" fill="#000000">PageJumpPanelComponent </text>
</g>
<!-- SharedModule&#45;&gt;PageJumpPanelComponent  -->
<g id="edge17" class="edge">
<title>SharedModule&#45;&gt;PageJumpPanelComponent </title>
<path fill="none" stroke="#000000" stroke-dasharray="5,2" d="M374.6056,-122.2667C374.6056,-140.5552 374.6056,-166 374.6056,-166 374.6056,-166 429.2496,-166 429.2496,-166"/>
<polygon fill="#000000" stroke="#000000" points="429.2496,-169.5001 439.2496,-166 429.2495,-162.5001 429.2496,-169.5001"/>
</g>
<!-- CompComponent -->
<g id="node6" class="node">
<title>CompComponent</title>
<polygon fill="#ffffb3" stroke="#000000" points="2178.5604,-122 2063.4396,-122 2063.4396,-86 2178.5604,-86 2178.5604,-122"/>
<text text-anchor="middle" x="2121" y="-99.8" font-family="Times,serif" font-size="14.00" fill="#000000">CompComponent</text>
</g>
<!-- CompComponent&#45;&gt;CompModule -->
<g id="edge5" class="edge">
<title>CompComponent&#45;&gt;CompModule</title>
<path fill="none" stroke="#000000" d="M2121,-122.2228C2121,-142.3652 2121,-172 2121,-172 2121,-172 1901.8196,-172 1901.8196,-172"/>
<polygon fill="#000000" stroke="#000000" points="1901.8197,-168.5001 1891.8196,-172 1901.8196,-175.5001 1901.8197,-168.5001"/>
</g>
<!-- PageJumpPanelDemoComponent -->
<g id="node7" class="node">
<title>PageJumpPanelDemoComponent</title>
<polygon fill="#ffffb3" stroke="#000000" points="2045.1937,-122 1840.8063,-122 1840.8063,-86 2045.1937,-86 2045.1937,-122"/>
<text text-anchor="middle" x="1943" y="-99.8" font-family="Times,serif" font-size="14.00" fill="#000000">PageJumpPanelDemoComponent</text>
</g>
<!-- PageJumpPanelDemoComponent&#45;&gt;CompModule -->
<g id="edge6" class="edge">
<title>PageJumpPanelDemoComponent&#45;&gt;CompModule</title>
<path fill="none" stroke="#000000" d="M1866.3959,-122.2228C1866.3959,-122.2228 1866.3959,-143.7269 1866.3959,-143.7269"/>
<polygon fill="#000000" stroke="#000000" points="1862.8959,-143.7269 1866.3959,-153.7269 1869.8959,-143.727 1862.8959,-143.7269"/>
</g>
<!-- CompRoutingModule -->
<g id="node9" class="node">
<title>CompRoutingModule</title>
<polygon fill="#8dd3c7" stroke="#000000" points="1817.3948,-122 1814.3948,-126 1793.3948,-126 1790.3948,-122 1678.6052,-122 1678.6052,-86 1817.3948,-86 1817.3948,-122"/>
<text text-anchor="middle" x="1748" y="-99.8" font-family="Times,serif" font-size="14.00" fill="#000000">CompRoutingModule</text>
</g>
<!-- CompRoutingModule&#45;&gt;CompModule -->
<g id="edge7" class="edge">
<title>CompRoutingModule&#45;&gt;CompModule</title>
<path fill="none" stroke="#000000" d="M1807.7795,-122.2228C1807.7795,-122.2228 1807.7795,-143.7269 1807.7795,-143.7269"/>
<polygon fill="#000000" stroke="#000000" points="1804.2795,-143.7269 1807.7795,-153.7269 1811.2795,-143.727 1804.2795,-143.7269"/>
</g>
<!-- FormComponent -->
<g id="node10" class="node">
<title>FormComponent</title>
<polygon fill="#ffffb3" stroke="#000000" points="2490.6667,-122 2379.3333,-122 2379.3333,-86 2490.6667,-86 2490.6667,-122"/>
<text text-anchor="middle" x="2435" y="-99.8" font-family="Times,serif" font-size="14.00" fill="#000000">FormComponent</text>
</g>
<!-- FormComponent&#45;&gt;FormModule -->
<g id="edge9" class="edge">
<title>FormComponent&#45;&gt;FormModule</title>
<path fill="none" stroke="#000000" d="M2435,-122.2228C2435,-142.3652 2435,-172 2435,-172 2435,-172 2342.2091,-172 2342.2091,-172"/>
<polygon fill="#000000" stroke="#000000" points="2342.2091,-168.5001 2332.2091,-172 2342.209,-175.5001 2342.2091,-168.5001"/>
</g>
<!-- FormRoutingModule -->
<g id="node12" class="node">
<title>FormRoutingModule</title>
<polygon fill="#8dd3c7" stroke="#000000" points="2354.5014,-122 2351.5014,-126 2330.5014,-126 2327.5014,-122 2219.4986,-122 2219.4986,-86 2354.5014,-86 2354.5014,-122"/>
<text text-anchor="middle" x="2287" y="-99.8" font-family="Times,serif" font-size="14.00" fill="#000000">FormRoutingModule</text>
</g>
<!-- FormRoutingModule&#45;&gt;FormModule -->
<g id="edge10" class="edge">
<title>FormRoutingModule&#45;&gt;FormModule</title>
<path fill="none" stroke="#000000" d="M2301.9806,-122.2228C2301.9806,-122.2228 2301.9806,-143.7269 2301.9806,-143.7269"/>
<polygon fill="#000000" stroke="#000000" points="2298.4807,-143.7269 2301.9806,-153.7269 2305.4807,-143.727 2298.4807,-143.7269"/>
</g>
<!-- FormCheckboxGroupComponent -->
<g id="node13" class="node">
<title>FormCheckboxGroupComponent</title>
<polygon fill="#ffffb3" stroke="#000000" points="1639.1993,-190 1434.8007,-190 1434.8007,-154 1639.1993,-154 1639.1993,-190"/>
<text text-anchor="middle" x="1537" y="-167.8" font-family="Times,serif" font-size="14.00" fill="#000000">FormCheckboxGroupComponent</text>
</g>
<!-- FormCheckboxGroupComponent&#45;&gt;SharedModule -->
<g id="edge12" class="edge">
<title>FormCheckboxGroupComponent&#45;&gt;SharedModule</title>
<path fill="none" stroke="#000000" d="M1537,-153.8446C1537,-131.6481 1537,-97 1537,-97 1537,-97 409.4927,-97 409.4927,-97"/>
<polygon fill="#000000" stroke="#000000" points="409.4927,-93.5001 399.4927,-97 409.4927,-100.5001 409.4927,-93.5001"/>
</g>
<!-- FormMultiInputComponent -->
<g id="node14" class="node">
<title>FormMultiInputComponent</title>
<polygon fill="#ffffb3" stroke="#000000" points="1417.3341,-190 1244.6659,-190 1244.6659,-154 1417.3341,-154 1417.3341,-190"/>
<text text-anchor="middle" x="1331" y="-167.8" font-family="Times,serif" font-size="14.00" fill="#000000">FormMultiInputComponent</text>
</g>
<!-- FormMultiInputComponent&#45;&gt;SharedModule -->
<g id="edge13" class="edge">
<title>FormMultiInputComponent&#45;&gt;SharedModule</title>
<path fill="none" stroke="#000000" d="M1331,-153.9733C1331,-133.2328 1331,-102 1331,-102 1331,-102 409.3202,-102 409.3202,-102"/>
<polygon fill="#000000" stroke="#000000" points="409.3203,-98.5001 399.3202,-102 409.3202,-105.5001 409.3203,-98.5001"/>
</g>
<!-- PageJumpPanelComponent -->
<g id="node15" class="node">
<title>PageJumpPanelComponent</title>
<polygon fill="#ffffb3" stroke="#000000" points="1226.9818,-190 1057.0182,-190 1057.0182,-154 1226.9818,-154 1226.9818,-190"/>
<text text-anchor="middle" x="1142" y="-167.8" font-family="Times,serif" font-size="14.00" fill="#000000">PageJumpPanelComponent</text>
</g>
<!-- PageJumpPanelComponent&#45;&gt;SharedModule -->
<g id="edge14" class="edge">
<title>PageJumpPanelComponent&#45;&gt;SharedModule</title>
<path fill="none" stroke="#000000" d="M1142,-153.8939C1142,-134.6609 1142,-107 1142,-107 1142,-107 409.2439,-107 409.2439,-107"/>
<polygon fill="#000000" stroke="#000000" points="409.2439,-103.5001 399.2439,-107 409.2439,-110.5001 409.2439,-103.5001"/>
</g>
</g>
</svg>
